<svg width="36" height="31" viewBox="0 0 36 31" fill="none" xmlns="http://www.w3.org/2000/svg">
<path d="M18.5455 11.6651C14.1881 11.6651 10.6557 15.1639 10.6557 19.48C10.6557 23.7961 14.1881 27.2949 18.5455 27.2949C22.9029 27.2949 26.4353 23.7961 26.4353 19.48C26.4353 15.1639 22.9033 11.6651 18.5455 11.6651ZM18.5215 26.2613C14.7658 26.2613 11.7209 23.2454 11.7209 19.5252C11.7209 15.8051 14.7658 12.7891 18.5215 12.7891C22.2773 12.7891 25.3222 15.8051 25.3222 19.5252C25.3222 23.2457 22.2773 26.2613 18.5215 26.2613Z" fill="white"/>
<path d="M18.7739 16.2989C18.5729 16.2989 18.3754 16.3132 18.1829 16.3408C19.9784 16.8221 21.3134 18.6243 21.3134 20.7752C21.3134 21.4959 21.163 22.1771 20.8963 22.7828C21.9261 22.1484 22.6046 21.0662 22.6046 19.8373C22.6046 17.8832 20.8894 16.2989 18.7739 16.2989Z" fill="white"/>
<path d="M33.6885 8.88809H24.8415C22.9951 7.75724 20.8179 7.0923 18.4881 7.0923C16.1583 7.0923 13.9811 7.75724 12.1346 8.88809H8.75292V3.98774H6.2473L5.49759 2.97601L6.02201 0.410484L3.7394 1.43164L1.54851 0.15152L1.87845 2.62092L0 4.29081L2.48659 4.7439L3.34932 7.03011L3.42506 6.58568V8.88809H2.91206C1.64631 8.88809 1.14169 10.0348 1.14169 11.2885V27.448C1.14169 28.7017 1.64631 29.62 2.91206 29.62H12.7827C14.4823 29.9969 16.4254 31.043 18.4881 31.043C20.5507 31.043 22.4935 29.9969 24.1935 29.62H33.6885C34.9542 29.62 36.1534 28.7017 36.1534 27.448V11.2885C36.1534 10.0348 34.9542 8.88809 33.6885 8.88809ZM5.32786 4.81326L6.77857 4.36469H7.61123V8.13419H5.32786V4.81326ZM3.44599 4.58332L3.1678 3.77929L2.33551 3.61908L3.01633 3.02991L2.91092 2.15689L3.68612 2.59642L4.49063 2.21758L4.30758 3.3081L4.7399 3.98774H3.42506V4.31644L3.44599 4.58332ZM2.91206 28.1125C2.73434 28.1125 3.04449 27.6244 3.04449 27.4484V11.2885C3.04449 11.1125 2.73434 10.7725 2.91206 10.7725H9.72488C7.67898 13.0342 6.42274 16.0814 6.42274 19.2561C6.42274 22.6189 7.83272 25.4735 10.0971 28.1122H2.91206V28.1125ZM18.4881 29.4247C12.7998 29.4247 8.1718 24.8406 8.1718 19.2063C8.1718 13.5721 12.7994 8.98798 18.4881 8.98798C24.1763 8.98798 28.8043 13.5721 28.8043 19.2063C28.8043 24.8406 24.1763 29.4247 18.4881 29.4247ZM33.87 27.4484C33.87 27.6244 33.8662 28.1125 33.6885 28.1125H26.8791C29.1434 25.4739 30.5534 22.6189 30.5534 19.2565C30.5534 16.0818 29.2968 13.0345 27.2513 10.7728H33.6888C33.8666 10.7728 33.8704 11.1125 33.8704 11.2889V27.4484H33.87Z" fill="white"/>
</svg>
